<svg width="1086" height="213" viewBox="0 0 1086 213" fill="none" xmlns="http://www.w3.org/2000/svg">
<rect x="2" y="5" width="1081" height="202" fill="white"/>
<path fill-rule="evenodd" clip-rule="evenodd" d="M447.241 36.9214H652.407V176.354H447.241V36.9214Z" fill="#6AA84F"/>
<path fill-rule="evenodd" clip-rule="evenodd" d="M447.241 36.9214H652.407V176.354H447.241V36.9214Z" stroke="black" stroke-width="3" stroke-miterlimit="10" stroke-linejoin="round"/>
<path d="M461.085 63.8413V52.0601H456.679V50.4819H467.257V52.0601H462.851V63.8413H461.085ZM473.115 62.6538C472.501 63.1642 471.912 63.5288 471.35 63.7476C470.798 63.9559 470.199 64.0601 469.553 64.0601C468.49 64.0601 467.673 63.7996 467.1 63.2788C466.527 62.758 466.24 62.0965 466.24 61.2944C466.24 60.8153 466.35 60.383 466.568 59.9976C466.787 59.6017 467.068 59.2892 467.412 59.0601C467.766 58.8205 468.162 58.6382 468.6 58.5132C468.912 58.4299 469.397 58.3465 470.053 58.2632C471.376 58.1069 472.35 57.9194 472.975 57.7007C472.985 57.4715 472.99 57.3309 472.99 57.2788C472.99 56.6121 472.834 56.1382 472.522 55.8569C472.105 55.4924 471.48 55.3101 470.647 55.3101C469.876 55.3101 469.308 55.4455 468.943 55.7163C468.579 55.9871 468.308 56.4611 468.131 57.1382L466.522 56.9194C466.667 56.2424 466.907 55.6955 467.24 55.2788C467.574 54.8517 468.058 54.5236 468.693 54.2944C469.329 54.0653 470.058 53.9507 470.881 53.9507C471.714 53.9507 472.386 54.0496 472.897 54.2476C473.417 54.4351 473.798 54.6799 474.037 54.9819C474.287 55.2736 474.459 55.6434 474.553 56.0913C474.605 56.3726 474.631 56.8778 474.631 57.6069V59.7944C474.631 61.3153 474.667 62.2788 474.74 62.6851C474.813 63.0809 474.949 63.4663 475.147 63.8413H473.443C473.266 63.4976 473.157 63.1017 473.115 62.6538ZM472.975 58.9819C472.381 59.2319 471.49 59.4403 470.303 59.6069C469.626 59.7007 469.147 59.8101 468.865 59.9351C468.584 60.0601 468.365 60.2371 468.209 60.4663C468.063 60.6955 467.99 60.9559 467.99 61.2476C467.99 61.6851 468.157 62.0496 468.49 62.3413C468.824 62.633 469.308 62.7788 469.943 62.7788C470.568 62.7788 471.126 62.6434 471.615 62.3726C472.115 62.0913 472.48 61.7111 472.709 61.2319C472.886 60.8569 472.975 60.3101 472.975 59.5913V58.9819ZM476.522 60.9507L478.147 60.7007C478.231 61.3465 478.481 61.8465 478.897 62.2007C479.314 62.5444 479.897 62.7163 480.647 62.7163C481.397 62.7163 481.955 62.5653 482.319 62.2632C482.684 61.9507 482.866 61.5861 482.866 61.1694C482.866 60.8049 482.705 60.5132 482.382 60.2944C482.163 60.1486 481.606 59.9663 480.71 59.7476C479.501 59.4351 478.663 59.1694 478.194 58.9507C477.736 58.7319 477.387 58.4299 477.147 58.0444C476.908 57.6486 476.788 57.2111 476.788 56.7319C476.788 56.3049 476.887 55.909 477.085 55.5444C477.283 55.1694 477.554 54.8621 477.897 54.6226C478.147 54.4351 478.491 54.2788 478.929 54.1538C479.376 54.0184 479.85 53.9507 480.35 53.9507C481.111 53.9507 481.777 54.0601 482.35 54.2788C482.923 54.4976 483.345 54.7944 483.616 55.1694C483.897 55.5444 484.09 56.0444 484.194 56.6694L482.585 56.8882C482.512 56.3882 482.298 55.9976 481.944 55.7163C481.6 55.4351 481.111 55.2944 480.475 55.2944C479.715 55.2944 479.173 55.4194 478.85 55.6694C478.538 55.9194 478.382 56.2111 478.382 56.5444C478.382 56.7528 478.444 56.9455 478.569 57.1226C478.705 57.2996 478.918 57.4455 479.21 57.5601C479.366 57.6226 479.845 57.7632 480.647 57.9819C481.814 58.284 482.626 58.534 483.085 58.7319C483.543 58.9299 483.902 59.2163 484.163 59.5913C484.423 59.9663 484.554 60.4351 484.554 60.9976C484.554 61.5496 484.392 62.0653 484.069 62.5444C483.757 63.0236 483.298 63.3986 482.694 63.6694C482.09 63.9298 481.408 64.0601 480.647 64.0601C479.397 64.0601 478.439 63.7996 477.772 63.2788C477.116 62.758 476.699 61.9819 476.522 60.9507ZM486.507 63.8413V50.4819H488.147V58.1069L492.038 54.1694H494.147L490.46 57.7632L494.522 63.8413H492.507L489.304 58.8882L488.147 60.0132V63.8413H486.507ZM503.991 62.2632V63.8413H495.163C495.152 63.4455 495.215 63.0653 495.35 62.7007C495.58 62.0965 495.939 61.5028 496.429 60.9194C496.929 60.3361 497.647 59.6642 498.585 58.9038C500.033 57.7163 501.012 56.7736 501.522 56.0757C502.033 55.3778 502.288 54.7215 502.288 54.1069C502.288 53.4507 502.054 52.9038 501.585 52.4663C501.126 52.0184 500.522 51.7944 499.772 51.7944C498.981 51.7944 498.345 52.034 497.866 52.5132C497.397 52.9819 497.163 53.633 497.163 54.4663L495.475 54.2944C495.59 53.034 496.022 52.0757 496.772 51.4194C497.533 50.7632 498.543 50.4351 499.804 50.4351C501.085 50.4351 502.1 50.7892 502.85 51.4976C503.6 52.2059 503.975 53.0861 503.975 54.1382C503.975 54.6694 503.866 55.1955 503.647 55.7163C503.429 56.2371 503.064 56.784 502.554 57.3569C502.054 57.9194 501.21 58.7007 500.022 59.7007C499.043 60.5236 498.413 61.0861 498.132 61.3882C497.85 61.6799 497.621 61.9715 497.444 62.2632H503.991Z" fill="black"/>
<path fill-rule="evenodd" clip-rule="evenodd" d="M746.669 36.9214H1051.71V176.354H746.669V36.9214Z" fill="#6AA84F"/>
<path fill-rule="evenodd" clip-rule="evenodd" d="M746.669 36.9214H1051.71V176.354H746.669V36.9214Z" stroke="black" stroke-width="3" stroke-miterlimit="10" stroke-linejoin="round"/>
<path d="M760.513 63.8413V52.0601H756.107V50.4819H766.685V52.0601H762.279V63.8413H760.513ZM772.543 62.6538C771.929 63.1642 771.34 63.5288 770.778 63.7476C770.226 63.9559 769.627 64.0601 768.981 64.0601C767.918 64.0601 767.101 63.7996 766.528 63.2788C765.955 62.758 765.668 62.0965 765.668 61.2944C765.668 60.8153 765.778 60.383 765.996 59.9976C766.215 59.6017 766.496 59.2892 766.84 59.0601C767.194 58.8205 767.59 58.6382 768.028 58.5132C768.34 58.4299 768.825 58.3465 769.481 58.2632C770.804 58.1069 771.778 57.9194 772.403 57.7007C772.413 57.4715 772.418 57.3309 772.418 57.2788C772.418 56.6121 772.262 56.1382 771.95 55.8569C771.533 55.4924 770.908 55.3101 770.075 55.3101C769.304 55.3101 768.736 55.4455 768.371 55.7163C768.007 55.9871 767.736 56.4611 767.559 57.1382L765.95 56.9194C766.095 56.2424 766.335 55.6955 766.668 55.2788C767.002 54.8517 767.486 54.5236 768.121 54.2944C768.757 54.0653 769.486 53.9507 770.309 53.9507C771.142 53.9507 771.814 54.0496 772.325 54.2476C772.845 54.4351 773.226 54.6799 773.465 54.9819C773.715 55.2736 773.887 55.6434 773.981 56.0913C774.033 56.3726 774.059 56.8778 774.059 57.6069V59.7944C774.059 61.3153 774.095 62.2788 774.168 62.6851C774.241 63.0809 774.377 63.4663 774.575 63.8413H772.871C772.694 63.4976 772.585 63.1017 772.543 62.6538ZM772.403 58.9819C771.809 59.2319 770.918 59.4403 769.731 59.6069C769.054 59.7007 768.575 59.8101 768.293 59.9351C768.012 60.0601 767.793 60.2371 767.637 60.4663C767.491 60.6955 767.418 60.9559 767.418 61.2476C767.418 61.6851 767.585 62.0496 767.918 62.3413C768.252 62.633 768.736 62.7788 769.371 62.7788C769.996 62.7788 770.554 62.6434 771.043 62.3726C771.543 62.0913 771.908 61.7111 772.137 61.2319C772.314 60.8569 772.403 60.3101 772.403 59.5913V58.9819ZM775.95 60.9507L777.575 60.7007C777.659 61.3465 777.909 61.8465 778.325 62.2007C778.742 62.5444 779.325 62.7163 780.075 62.7163C780.825 62.7163 781.382 62.5653 781.747 62.2632C782.112 61.9507 782.294 61.5861 782.294 61.1694C782.294 60.8049 782.132 60.5132 781.81 60.2944C781.591 60.1486 781.034 59.9663 780.138 59.7476C778.929 59.4351 778.091 59.1694 777.622 58.9507C777.164 58.7319 776.815 58.4299 776.575 58.0444C776.336 57.6486 776.216 57.2111 776.216 56.7319C776.216 56.3049 776.315 55.909 776.513 55.5444C776.711 55.1694 776.981 54.8621 777.325 54.6226C777.575 54.4351 777.919 54.2788 778.356 54.1538C778.804 54.0184 779.278 53.9507 779.778 53.9507C780.539 53.9507 781.205 54.0601 781.778 54.2788C782.351 54.4976 782.773 54.7944 783.044 55.1694C783.325 55.5444 783.518 56.0444 783.622 56.6694L782.013 56.8882C781.94 56.3882 781.726 55.9976 781.372 55.7163C781.028 55.4351 780.539 55.2944 779.903 55.2944C779.143 55.2944 778.601 55.4194 778.278 55.6694C777.966 55.9194 777.81 56.2111 777.81 56.5444C777.81 56.7528 777.872 56.9455 777.997 57.1226C778.132 57.2996 778.346 57.4455 778.638 57.5601C778.794 57.6226 779.273 57.7632 780.075 57.9819C781.242 58.284 782.054 58.534 782.513 58.7319C782.971 58.9299 783.33 59.2163 783.591 59.5913C783.851 59.9663 783.981 60.4351 783.981 60.9976C783.981 61.5496 783.82 62.0653 783.497 62.5444C783.185 63.0236 782.726 63.3986 782.122 63.6694C781.518 63.9298 780.836 64.0601 780.075 64.0601C778.825 64.0601 777.867 63.7996 777.2 63.2788C776.544 62.758 776.127 61.9819 775.95 60.9507ZM785.935 63.8413V50.4819H787.575V58.1069L791.466 54.1694H793.575L789.888 57.7632L793.95 63.8413H791.935L788.731 58.8882L787.575 60.0132V63.8413H785.935ZM794.81 60.3101L796.45 60.0913C796.638 61.0288 796.955 61.7007 797.403 62.1069C797.862 62.5132 798.414 62.7163 799.06 62.7163C799.83 62.7163 800.481 62.4507 801.013 61.9194C801.544 61.3882 801.81 60.7267 801.81 59.9351C801.81 59.1851 801.565 58.5653 801.075 58.0757C800.586 57.5861 799.961 57.3413 799.2 57.3413C798.888 57.3413 798.502 57.3986 798.044 57.5132L798.231 56.0757C798.336 56.0861 798.424 56.0913 798.497 56.0913C799.195 56.0913 799.82 55.909 800.372 55.5444C800.935 55.1799 801.216 54.6226 801.216 53.8726C801.216 53.2684 801.013 52.7684 800.606 52.3726C800.2 51.9767 799.674 51.7788 799.028 51.7788C798.393 51.7788 797.862 51.9819 797.435 52.3882C797.007 52.784 796.737 53.383 796.622 54.1851L794.981 53.8882C795.179 52.7944 795.632 51.9455 796.341 51.3413C797.049 50.7371 797.935 50.4351 798.997 50.4351C799.726 50.4351 800.393 50.5913 800.997 50.9038C801.612 51.2163 802.08 51.6434 802.403 52.1851C802.737 52.7267 802.903 53.2996 802.903 53.9038C802.903 54.4767 802.747 55.0028 802.435 55.4819C802.122 55.9507 801.664 56.3257 801.06 56.6069C801.851 56.7944 802.466 57.1746 802.903 57.7476C803.341 58.3205 803.56 59.0392 803.56 59.9038C803.56 61.0601 803.132 62.0444 802.278 62.8569C801.435 63.6694 800.362 64.0757 799.06 64.0757C797.882 64.0757 796.909 63.7267 796.138 63.0288C795.367 62.3309 794.924 61.4246 794.81 60.3101Z" fill="black"/>
<path fill-rule="evenodd" clip-rule="evenodd" d="M32.4568 36.9214H337.496V176.354H32.4568V36.9214Z" fill="#6AA84F"/>
<path fill-rule="evenodd" clip-rule="evenodd" d="M32.4568 36.9214H337.496V176.354H32.4568V36.9214Z" stroke="black" stroke-width="3" stroke-miterlimit="10" stroke-linejoin="round"/>
<path d="M46.3005 63.8413V52.0601H41.8943V50.4819H52.4724V52.0601H48.0662V63.8413H46.3005ZM58.3306 62.6538C57.716 63.1642 57.1275 63.5288 56.565 63.7476C56.0129 63.9559 55.414 64.0601 54.7681 64.0601C53.7056 64.0601 52.8879 63.7996 52.315 63.2788C51.7421 62.758 51.4556 62.0965 51.4556 61.2944C51.4556 60.8153 51.565 60.383 51.7837 59.9976C52.0025 59.6017 52.2837 59.2892 52.6275 59.0601C52.9817 58.8205 53.3775 58.6382 53.815 58.5132C54.1275 58.4299 54.6119 58.3465 55.2681 58.2632C56.591 58.1069 57.565 57.9194 58.19 57.7007C58.2004 57.4715 58.2056 57.3309 58.2056 57.2788C58.2056 56.6121 58.0494 56.1382 57.7369 55.8569C57.3202 55.4924 56.6952 55.3101 55.8619 55.3101C55.091 55.3101 54.5233 55.4455 54.1587 55.7163C53.7942 55.9871 53.5233 56.4611 53.3462 57.1382L51.7369 56.9194C51.8827 56.2424 52.1223 55.6955 52.4556 55.2788C52.789 54.8517 53.2733 54.5236 53.9087 54.2944C54.5442 54.0653 55.2733 53.9507 56.0962 53.9507C56.9296 53.9507 57.6015 54.0496 58.1119 54.2476C58.6327 54.4351 59.0129 54.6799 59.2525 54.9819C59.5025 55.2736 59.6744 55.6434 59.7681 56.0913C59.8202 56.3726 59.8462 56.8778 59.8462 57.6069V59.7944C59.8462 61.3153 59.8827 62.2788 59.9556 62.6851C60.0285 63.0809 60.164 63.4663 60.3619 63.8413H58.6587C58.4817 63.4976 58.3723 63.1017 58.3306 62.6538ZM58.19 58.9819C57.5962 59.2319 56.7056 59.4403 55.5181 59.6069C54.841 59.7007 54.3619 59.8101 54.0806 59.9351C53.7994 60.0601 53.5806 60.2371 53.4244 60.4663C53.2785 60.6955 53.2056 60.9559 53.2056 61.2476C53.2056 61.6851 53.3723 62.0496 53.7056 62.3413C54.039 62.633 54.5233 62.7788 55.1587 62.7788C55.7837 62.7788 56.341 62.6434 56.8306 62.3726C57.3306 62.0913 57.6952 61.7111 57.9244 61.2319C58.1015 60.8569 58.19 60.3101 58.19 59.5913V58.9819ZM61.7376 60.9507L63.3626 60.7007C63.4459 61.3465 63.6959 61.8465 64.1126 62.2007C64.5293 62.5444 65.1126 62.7163 65.8626 62.7163C66.6126 62.7163 67.1699 62.5653 67.5345 62.2632C67.8991 61.9507 68.0813 61.5861 68.0813 61.1694C68.0813 60.8049 67.9199 60.5132 67.597 60.2944C67.3782 60.1486 66.8209 59.9663 65.9251 59.7476C64.7168 59.4351 63.8782 59.1694 63.4095 58.9507C62.9511 58.7319 62.6022 58.4299 62.3626 58.0444C62.123 57.6486 62.0032 57.2111 62.0032 56.7319C62.0032 56.3049 62.1022 55.909 62.3001 55.5444C62.498 55.1694 62.7688 54.8621 63.1126 54.6226C63.3626 54.4351 63.7063 54.2788 64.1438 54.1538C64.5918 54.0184 65.0657 53.9507 65.5657 53.9507C66.3261 53.9507 66.9928 54.0601 67.5657 54.2788C68.1386 54.4976 68.5605 54.7944 68.8313 55.1694C69.1126 55.5444 69.3053 56.0444 69.4095 56.6694L67.8001 56.8882C67.7272 56.3882 67.5136 55.9976 67.1595 55.7163C66.8157 55.4351 66.3261 55.2944 65.6907 55.2944C64.9303 55.2944 64.3886 55.4194 64.0657 55.6694C63.7532 55.9194 63.597 56.2111 63.597 56.5444C63.597 56.7528 63.6595 56.9455 63.7845 57.1226C63.9199 57.2996 64.1334 57.4455 64.4251 57.5601C64.5813 57.6226 65.0605 57.7632 65.8626 57.9819C67.0293 58.284 67.8418 58.534 68.3001 58.7319C68.7584 58.9299 69.1178 59.2163 69.3782 59.5913C69.6386 59.9663 69.7688 60.4351 69.7688 60.9976C69.7688 61.5496 69.6074 62.0653 69.2845 62.5444C68.972 63.0236 68.5136 63.3986 67.9095 63.6694C67.3053 63.9298 66.623 64.0601 65.8626 64.0601C64.6126 64.0601 63.6543 63.7996 62.9876 63.2788C62.3313 62.758 61.9147 61.9819 61.7376 60.9507ZM71.722 63.8413V50.4819H73.3626V58.1069L77.2532 54.1694H79.3626L75.6751 57.7632L79.7376 63.8413H77.722L74.5188 58.8882L73.3626 60.0132V63.8413H71.722ZM86.7688 63.8413H85.1282V53.3882C84.7324 53.7632 84.2116 54.1434 83.5657 54.5288C82.9303 54.9038 82.3574 55.1851 81.847 55.3726V53.7788C82.7636 53.3517 83.5657 52.8309 84.2532 52.2163C84.9407 51.6017 85.4251 51.008 85.7063 50.4351H86.7688V63.8413Z" fill="black"/>
<path fill-rule="evenodd" clip-rule="evenodd" d="M43.9817 83.7295H122.533V162.312H43.9817V83.7295Z" fill="#CFE2F3"/>
<path fill-rule="evenodd" clip-rule="evenodd" d="M43.9817 83.7295H122.533V162.312H43.9817V83.7295Z" stroke="black" stroke-width="2" stroke-miterlimit="10" stroke-linejoin="round"/>
<path d="M55.8374 127.05L57.4624 126.8C57.5457 127.446 57.7957 127.946 58.2124 128.3C58.6291 128.644 59.2124 128.816 59.9624 128.816C60.7124 128.816 61.2697 128.665 61.6343 128.363C61.9989 128.05 62.1812 127.686 62.1812 127.269C62.1812 126.904 62.0197 126.613 61.6968 126.394C61.478 126.248 60.9207 126.066 60.0249 125.847C58.8166 125.535 57.978 125.269 57.5093 125.05C57.0509 124.832 56.702 124.529 56.4624 124.144C56.2228 123.748 56.103 123.311 56.103 122.832C56.103 122.404 56.202 122.009 56.3999 121.644C56.5978 121.269 56.8687 120.962 57.2124 120.722C57.4624 120.535 57.8062 120.378 58.2437 120.253C58.6916 120.118 59.1655 120.05 59.6655 120.05C60.4259 120.05 61.0926 120.16 61.6655 120.378C62.2384 120.597 62.6603 120.894 62.9312 121.269C63.2124 121.644 63.4051 122.144 63.5093 122.769L61.8999 122.988C61.827 122.488 61.6134 122.097 61.2593 121.816C60.9155 121.535 60.4259 121.394 59.7905 121.394C59.0301 121.394 58.4884 121.519 58.1655 121.769C57.853 122.019 57.6968 122.311 57.6968 122.644C57.6968 122.852 57.7593 123.045 57.8843 123.222C58.0197 123.399 58.2332 123.545 58.5249 123.66C58.6812 123.722 59.1603 123.863 59.9624 124.082C61.1291 124.384 61.9416 124.634 62.3999 124.832C62.8582 125.029 63.2176 125.316 63.478 125.691C63.7384 126.066 63.8687 126.535 63.8687 127.097C63.8687 127.649 63.7072 128.165 63.3843 128.644C63.0718 129.123 62.6134 129.498 62.0093 129.769C61.4051 130.029 60.7228 130.16 59.9624 130.16C58.7124 130.16 57.7541 129.899 57.0874 129.378C56.4312 128.858 56.0145 128.082 55.8374 127.05ZM65.2124 125.097C65.2124 123.306 65.7072 121.983 66.6968 121.128C67.5301 120.41 68.5457 120.05 69.7437 120.05C71.077 120.05 72.1655 120.488 73.0093 121.363C73.853 122.227 74.2749 123.431 74.2749 124.972C74.2749 126.212 74.0874 127.191 73.7124 127.91C73.3374 128.618 72.7905 129.17 72.0718 129.566C71.3634 129.962 70.5874 130.16 69.7437 130.16C68.3895 130.16 67.2957 129.727 66.4624 128.863C65.6291 127.988 65.2124 126.733 65.2124 125.097ZM66.8999 125.097C66.8999 126.337 67.1655 127.269 67.6968 127.894C68.2384 128.509 68.9207 128.816 69.7437 128.816C70.5562 128.816 71.2332 128.509 71.7749 127.894C72.3166 127.269 72.5874 126.321 72.5874 125.05C72.5874 123.852 72.3166 122.946 71.7749 122.332C71.2332 121.717 70.5562 121.41 69.7437 121.41C68.9207 121.41 68.2384 121.717 67.6968 122.332C67.1655 122.936 66.8999 123.858 66.8999 125.097ZM82.5256 129.941V128.519C81.7756 129.613 80.7548 130.16 79.4631 130.16C78.8902 130.16 78.3537 130.05 77.8537 129.832C77.3642 129.613 76.9996 129.337 76.76 129.003C76.5204 128.67 76.3537 128.264 76.26 127.785C76.1871 127.472 76.1506 126.962 76.1506 126.253V120.269H77.7912V125.628C77.7912 126.483 77.8277 127.061 77.9006 127.363C78.0048 127.79 78.2235 128.128 78.5569 128.378C78.8902 128.628 79.3017 128.753 79.7912 128.753C80.2808 128.753 80.7392 128.628 81.1662 128.378C81.6037 128.118 81.911 127.774 82.0881 127.347C82.2652 126.91 82.3537 126.279 82.3537 125.457V120.269H83.9944V129.941H82.5256ZM86.5576 129.941V120.269H88.0263V121.738C88.4013 121.05 88.7451 120.597 89.0576 120.378C89.3805 120.16 89.7347 120.05 90.1201 120.05C90.6722 120.05 91.2347 120.227 91.8076 120.582L91.2451 122.097C90.8388 121.858 90.4378 121.738 90.042 121.738C89.6774 121.738 89.3545 121.847 89.0732 122.066C88.792 122.285 88.5888 122.582 88.4638 122.957C88.2763 123.54 88.1826 124.181 88.1826 124.878V129.941H86.5576ZM99.0984 126.394L100.708 126.613C100.531 127.717 100.078 128.587 99.3484 129.222C98.6296 129.847 97.739 130.16 96.6765 130.16C95.3536 130.16 94.2911 129.727 93.489 128.863C92.6869 127.998 92.2859 126.759 92.2859 125.144C92.2859 124.092 92.4578 123.175 92.8015 122.394C93.1453 121.613 93.6713 121.029 94.3796 120.644C95.088 120.248 95.8588 120.05 96.6921 120.05C97.7442 120.05 98.6036 120.316 99.2703 120.847C99.9369 121.378 100.364 122.134 100.552 123.113L98.9578 123.347C98.8015 122.701 98.5307 122.217 98.1453 121.894C97.7598 121.561 97.2963 121.394 96.7546 121.394C95.9317 121.394 95.2598 121.691 94.739 122.285C94.2182 122.878 93.9578 123.816 93.9578 125.097C93.9578 126.399 94.2078 127.347 94.7078 127.941C95.2078 128.524 95.8588 128.816 96.6609 128.816C97.3067 128.816 97.8432 128.618 98.2703 128.222C98.7078 127.826 98.9838 127.217 99.0984 126.394ZM108.739 126.832L110.427 127.035C110.156 128.024 109.661 128.795 108.942 129.347C108.223 129.889 107.302 130.16 106.177 130.16C104.76 130.16 103.635 129.727 102.802 128.863C101.979 127.988 101.567 126.764 101.567 125.191C101.567 123.556 101.984 122.29 102.817 121.394C103.661 120.498 104.749 120.05 106.083 120.05C107.374 120.05 108.427 120.493 109.239 121.378C110.062 122.253 110.473 123.488 110.473 125.082C110.473 125.186 110.473 125.332 110.473 125.519H103.255C103.317 126.582 103.619 127.399 104.161 127.972C104.703 128.535 105.374 128.816 106.177 128.816C106.781 128.816 107.296 128.66 107.723 128.347C108.15 128.024 108.489 127.519 108.739 126.832ZM103.348 124.175H108.755C108.682 123.363 108.473 122.753 108.13 122.347C107.609 121.712 106.932 121.394 106.098 121.394C105.348 121.394 104.713 121.649 104.192 122.16C103.682 122.66 103.4 123.332 103.348 124.175Z" fill="black"/>
<path fill-rule="evenodd" clip-rule="evenodd" d="M145.005 83.7295H223.557V162.312H145.005V83.7295Z" fill="#CFE2F3"/>
<path fill-rule="evenodd" clip-rule="evenodd" d="M145.005 83.7295H223.557V162.312H145.005V83.7295Z" stroke="black" stroke-width="2" stroke-miterlimit="10" stroke-linejoin="round"/>
<path d="M162.181 129.941V120.269H163.65V121.628C163.952 121.149 164.353 120.769 164.853 120.488C165.363 120.196 165.936 120.05 166.572 120.05C167.291 120.05 167.879 120.201 168.337 120.503C168.796 120.795 169.119 121.207 169.306 121.738C170.077 120.613 171.072 120.05 172.291 120.05C173.259 120.05 173.999 120.316 174.509 120.847C175.03 121.378 175.291 122.196 175.291 123.3V129.941H173.65V123.847C173.65 123.191 173.598 122.722 173.494 122.441C173.389 122.149 173.197 121.915 172.916 121.738C172.634 121.561 172.306 121.472 171.931 121.472C171.254 121.472 170.692 121.701 170.244 122.16C169.796 122.608 169.572 123.326 169.572 124.316V129.941H167.931V123.66C167.931 122.931 167.796 122.384 167.525 122.019C167.254 121.654 166.817 121.472 166.212 121.472C165.754 121.472 165.327 121.592 164.931 121.832C164.535 122.071 164.249 122.425 164.072 122.894C163.905 123.363 163.822 124.04 163.822 124.925V129.941H162.181ZM184.034 128.753C183.42 129.264 182.831 129.628 182.269 129.847C181.717 130.055 181.118 130.16 180.472 130.16C179.409 130.16 178.592 129.899 178.019 129.378C177.446 128.858 177.159 128.196 177.159 127.394C177.159 126.915 177.269 126.483 177.488 126.097C177.706 125.701 177.988 125.389 178.331 125.16C178.685 124.92 179.081 124.738 179.519 124.613C179.831 124.529 180.316 124.446 180.972 124.363C182.295 124.207 183.269 124.019 183.894 123.8C183.904 123.571 183.909 123.431 183.909 123.378C183.909 122.712 183.753 122.238 183.441 121.957C183.024 121.592 182.399 121.41 181.566 121.41C180.795 121.41 180.227 121.545 179.863 121.816C179.498 122.087 179.227 122.561 179.05 123.238L177.441 123.019C177.587 122.342 177.826 121.795 178.159 121.378C178.493 120.951 178.977 120.623 179.613 120.394C180.248 120.165 180.977 120.05 181.8 120.05C182.633 120.05 183.305 120.149 183.816 120.347C184.337 120.535 184.717 120.779 184.956 121.082C185.206 121.373 185.378 121.743 185.472 122.191C185.524 122.472 185.55 122.977 185.55 123.707V125.894C185.55 127.415 185.587 128.378 185.659 128.785C185.732 129.18 185.868 129.566 186.066 129.941H184.363C184.185 129.597 184.076 129.201 184.034 128.753ZM183.894 125.082C183.3 125.332 182.409 125.54 181.222 125.707C180.545 125.8 180.066 125.91 179.784 126.035C179.503 126.16 179.284 126.337 179.128 126.566C178.982 126.795 178.909 127.056 178.909 127.347C178.909 127.785 179.076 128.149 179.409 128.441C179.743 128.733 180.227 128.878 180.863 128.878C181.488 128.878 182.045 128.743 182.534 128.472C183.034 128.191 183.399 127.811 183.628 127.332C183.805 126.957 183.894 126.41 183.894 125.691V125.082ZM188.098 133.644V120.269H189.582V121.519C189.936 121.029 190.332 120.665 190.77 120.425C191.217 120.175 191.759 120.05 192.395 120.05C193.217 120.05 193.941 120.264 194.566 120.691C195.202 121.108 195.681 121.707 196.004 122.488C196.327 123.259 196.488 124.108 196.488 125.035C196.488 126.024 196.311 126.915 195.957 127.707C195.603 128.498 195.087 129.108 194.41 129.535C193.733 129.951 193.02 130.16 192.27 130.16C191.728 130.16 191.238 130.045 190.801 129.816C190.363 129.587 190.009 129.295 189.738 128.941V133.644H188.098ZM189.582 125.16C189.582 126.399 189.832 127.321 190.332 127.925C190.842 128.519 191.452 128.816 192.16 128.816C192.889 128.816 193.514 128.509 194.035 127.894C194.556 127.269 194.816 126.311 194.816 125.019C194.816 123.79 194.561 122.868 194.051 122.253C193.551 121.639 192.947 121.332 192.238 121.332C191.54 121.332 190.921 121.66 190.379 122.316C189.848 122.962 189.582 123.91 189.582 125.16ZM204.192 129.941H202.552V119.488C202.156 119.863 201.635 120.243 200.989 120.628C200.354 121.003 199.781 121.285 199.27 121.472V119.878C200.187 119.451 200.989 118.931 201.677 118.316C202.364 117.701 202.848 117.108 203.13 116.535H204.192V129.941Z" fill="black"/>
<path fill-rule="evenodd" clip-rule="evenodd" d="M246.029 83.7295H324.58V162.312H246.029V83.7295Z" fill="#CFE2F3"/>
<path fill-rule="evenodd" clip-rule="evenodd" d="M246.029 83.7295H324.58V162.312H246.029V83.7295Z" stroke="black" stroke-width="2" stroke-miterlimit="10" stroke-linejoin="round"/>
<path d="M263.205 129.941V120.269H264.674V121.628C264.976 121.149 265.377 120.769 265.877 120.488C266.387 120.196 266.96 120.05 267.595 120.05C268.314 120.05 268.903 120.201 269.361 120.503C269.819 120.795 270.142 121.207 270.33 121.738C271.101 120.613 272.095 120.05 273.314 120.05C274.283 120.05 275.023 120.316 275.533 120.847C276.054 121.378 276.314 122.196 276.314 123.3V129.941H274.674V123.847C274.674 123.191 274.622 122.722 274.517 122.441C274.413 122.149 274.22 121.915 273.939 121.738C273.658 121.561 273.33 121.472 272.955 121.472C272.278 121.472 271.715 121.701 271.267 122.16C270.819 122.608 270.595 123.326 270.595 124.316V129.941H268.955V123.66C268.955 122.931 268.819 122.384 268.549 122.019C268.278 121.654 267.84 121.472 267.236 121.472C266.778 121.472 266.351 121.592 265.955 121.832C265.559 122.071 265.273 122.425 265.095 122.894C264.929 123.363 264.845 124.04 264.845 124.925V129.941H263.205ZM285.058 128.753C284.444 129.264 283.855 129.628 283.293 129.847C282.74 130.055 282.141 130.16 281.496 130.16C280.433 130.16 279.615 129.899 279.043 129.378C278.47 128.858 278.183 128.196 278.183 127.394C278.183 126.915 278.293 126.483 278.511 126.097C278.73 125.701 279.011 125.389 279.355 125.16C279.709 124.92 280.105 124.738 280.543 124.613C280.855 124.529 281.339 124.446 281.996 124.363C283.319 124.207 284.293 124.019 284.918 123.8C284.928 123.571 284.933 123.431 284.933 123.378C284.933 122.712 284.777 122.238 284.464 121.957C284.048 121.592 283.423 121.41 282.589 121.41C281.819 121.41 281.251 121.545 280.886 121.816C280.522 122.087 280.251 122.561 280.074 123.238L278.464 123.019C278.61 122.342 278.85 121.795 279.183 121.378C279.516 120.951 280.001 120.623 280.636 120.394C281.272 120.165 282.001 120.05 282.824 120.05C283.657 120.05 284.329 120.149 284.839 120.347C285.36 120.535 285.74 120.779 285.98 121.082C286.23 121.373 286.402 121.743 286.496 122.191C286.548 122.472 286.574 122.977 286.574 123.707V125.894C286.574 127.415 286.61 128.378 286.683 128.785C286.756 129.18 286.891 129.566 287.089 129.941H285.386C285.209 129.597 285.1 129.201 285.058 128.753ZM284.918 125.082C284.324 125.332 283.433 125.54 282.246 125.707C281.569 125.8 281.089 125.91 280.808 126.035C280.527 126.16 280.308 126.337 280.152 126.566C280.006 126.795 279.933 127.056 279.933 127.347C279.933 127.785 280.1 128.149 280.433 128.441C280.766 128.733 281.251 128.878 281.886 128.878C282.511 128.878 283.069 128.743 283.558 128.472C284.058 128.191 284.423 127.811 284.652 127.332C284.829 126.957 284.918 126.41 284.918 125.691V125.082ZM289.121 133.644V120.269H290.606V121.519C290.96 121.029 291.356 120.665 291.793 120.425C292.241 120.175 292.783 120.05 293.418 120.05C294.241 120.05 294.965 120.264 295.59 120.691C296.226 121.108 296.705 121.707 297.028 122.488C297.351 123.259 297.512 124.108 297.512 125.035C297.512 126.024 297.335 126.915 296.981 127.707C296.627 128.498 296.111 129.108 295.434 129.535C294.757 129.951 294.043 130.16 293.293 130.16C292.752 130.16 292.262 130.045 291.824 129.816C291.387 129.587 291.033 129.295 290.762 128.941V133.644H289.121ZM290.606 125.16C290.606 126.399 290.856 127.321 291.356 127.925C291.866 128.519 292.476 128.816 293.184 128.816C293.913 128.816 294.538 128.509 295.059 127.894C295.58 127.269 295.84 126.311 295.84 125.019C295.84 123.79 295.585 122.868 295.074 122.253C294.574 121.639 293.97 121.332 293.262 121.332C292.564 121.332 291.944 121.66 291.403 122.316C290.871 122.962 290.606 123.91 290.606 125.16ZM307.653 128.363V129.941H298.825C298.815 129.545 298.877 129.165 299.013 128.8C299.242 128.196 299.601 127.602 300.091 127.019C300.591 126.436 301.31 125.764 302.247 125.003C303.695 123.816 304.674 122.873 305.185 122.175C305.695 121.477 305.95 120.821 305.95 120.207C305.95 119.55 305.716 119.003 305.247 118.566C304.789 118.118 304.185 117.894 303.435 117.894C302.643 117.894 302.007 118.134 301.528 118.613C301.06 119.082 300.825 119.733 300.825 120.566L299.138 120.394C299.252 119.134 299.685 118.175 300.435 117.519C301.195 116.863 302.205 116.535 303.466 116.535C304.747 116.535 305.763 116.889 306.513 117.597C307.263 118.306 307.638 119.186 307.638 120.238C307.638 120.769 307.528 121.295 307.31 121.816C307.091 122.337 306.726 122.884 306.216 123.457C305.716 124.019 304.872 124.8 303.685 125.8C302.705 126.623 302.075 127.186 301.794 127.488C301.513 127.779 301.284 128.071 301.106 128.363H307.653Z" fill="black"/>
<path fill-rule="evenodd" clip-rule="evenodd" d="M758.89 83.7295H837.441V162.312H758.89V83.7295Z" fill="#CFE2F3"/>
<path fill-rule="evenodd" clip-rule="evenodd" d="M758.89 83.7295H837.441V162.312H758.89V83.7295Z" stroke="black" stroke-width="2" stroke-miterlimit="10" stroke-linejoin="round"/>
<path d="M776.066 129.941V120.269H777.534V121.628C777.837 121.149 778.238 120.769 778.738 120.488C779.248 120.196 779.821 120.05 780.456 120.05C781.175 120.05 781.764 120.201 782.222 120.503C782.68 120.795 783.003 121.207 783.191 121.738C783.962 120.613 784.956 120.05 786.175 120.05C787.144 120.05 787.883 120.316 788.394 120.847C788.915 121.378 789.175 122.196 789.175 123.3V129.941H787.534V123.847C787.534 123.191 787.482 122.722 787.378 122.441C787.274 122.149 787.081 121.915 786.8 121.738C786.519 121.561 786.191 121.472 785.816 121.472C785.139 121.472 784.576 121.701 784.128 122.16C783.68 122.608 783.456 123.326 783.456 124.316V129.941H781.816V123.66C781.816 122.931 781.68 122.384 781.409 122.019C781.139 121.654 780.701 121.472 780.097 121.472C779.639 121.472 779.212 121.592 778.816 121.832C778.42 122.071 778.133 122.425 777.956 122.894C777.79 123.363 777.706 124.04 777.706 124.925V129.941H776.066ZM797.919 128.753C797.304 129.264 796.716 129.628 796.153 129.847C795.601 130.055 795.002 130.16 794.357 130.16C793.294 130.16 792.476 129.899 791.903 129.378C791.33 128.858 791.044 128.196 791.044 127.394C791.044 126.915 791.153 126.483 791.372 126.097C791.591 125.701 791.872 125.389 792.216 125.16C792.57 124.92 792.966 124.738 793.403 124.613C793.716 124.529 794.2 124.446 794.857 124.363C796.179 124.207 797.153 124.019 797.778 123.8C797.789 123.571 797.794 123.431 797.794 123.378C797.794 122.712 797.638 122.238 797.325 121.957C796.909 121.592 796.284 121.41 795.45 121.41C794.679 121.41 794.112 121.545 793.747 121.816C793.383 122.087 793.112 122.561 792.935 123.238L791.325 123.019C791.471 122.342 791.711 121.795 792.044 121.378C792.377 120.951 792.862 120.623 793.497 120.394C794.133 120.165 794.862 120.05 795.685 120.05C796.518 120.05 797.19 120.149 797.7 120.347C798.221 120.535 798.601 120.779 798.841 121.082C799.091 121.373 799.263 121.743 799.357 122.191C799.409 122.472 799.435 122.977 799.435 123.707V125.894C799.435 127.415 799.471 128.378 799.544 128.785C799.617 129.18 799.752 129.566 799.95 129.941H798.247C798.07 129.597 797.961 129.201 797.919 128.753ZM797.778 125.082C797.185 125.332 796.294 125.54 795.107 125.707C794.429 125.8 793.95 125.91 793.669 126.035C793.388 126.16 793.169 126.337 793.013 126.566C792.867 126.795 792.794 127.056 792.794 127.347C792.794 127.785 792.961 128.149 793.294 128.441C793.627 128.733 794.112 128.878 794.747 128.878C795.372 128.878 795.929 128.743 796.419 128.472C796.919 128.191 797.284 127.811 797.513 127.332C797.69 126.957 797.778 126.41 797.778 125.691V125.082ZM801.982 133.644V120.269H803.467V121.519C803.821 121.029 804.217 120.665 804.654 120.425C805.102 120.175 805.644 120.05 806.279 120.05C807.102 120.05 807.826 120.264 808.451 120.691C809.086 121.108 809.566 121.707 809.888 122.488C810.211 123.259 810.373 124.108 810.373 125.035C810.373 126.024 810.196 126.915 809.842 127.707C809.487 128.498 808.972 129.108 808.295 129.535C807.618 129.951 806.904 130.16 806.154 130.16C805.612 130.16 805.123 130.045 804.685 129.816C804.248 129.587 803.894 129.295 803.623 128.941V133.644H801.982ZM803.467 125.16C803.467 126.399 803.717 127.321 804.217 127.925C804.727 128.519 805.336 128.816 806.045 128.816C806.774 128.816 807.399 128.509 807.92 127.894C808.441 127.269 808.701 126.311 808.701 125.019C808.701 123.79 808.446 122.868 807.935 122.253C807.435 121.639 806.831 121.332 806.123 121.332C805.425 121.332 804.805 121.66 804.263 122.316C803.732 122.962 803.467 123.91 803.467 125.16ZM811.905 126.441L813.624 126.3C813.749 127.134 814.04 127.764 814.499 128.191C814.967 128.608 815.53 128.816 816.186 128.816C816.978 128.816 817.644 128.519 818.186 127.925C818.738 127.332 819.014 126.545 819.014 125.566C819.014 124.628 818.749 123.889 818.217 123.347C817.696 122.806 817.009 122.535 816.155 122.535C815.634 122.535 815.16 122.654 814.733 122.894C814.306 123.134 813.972 123.446 813.733 123.832L812.186 123.628L813.483 116.769H820.124V118.332H814.795L814.077 121.925C814.879 121.363 815.717 121.082 816.592 121.082C817.759 121.082 818.743 121.488 819.545 122.3C820.347 123.102 820.749 124.139 820.749 125.41C820.749 126.618 820.4 127.665 819.702 128.55C818.837 129.634 817.665 130.175 816.186 130.175C814.978 130.175 813.988 129.837 813.217 129.16C812.446 128.472 812.009 127.566 811.905 126.441Z" fill="black"/>
<path fill-rule="evenodd" clip-rule="evenodd" d="M859.913 83.7295H938.464V162.312H859.913V83.7295Z" fill="#CFE2F3"/>
<path fill-rule="evenodd" clip-rule="evenodd" d="M859.913 83.7295H938.464V162.312H859.913V83.7295Z" stroke="black" stroke-width="2" stroke-miterlimit="10" stroke-linejoin="round"/>
<path d="M877.089 129.941V120.269H878.558V121.628C878.86 121.149 879.261 120.769 879.761 120.488C880.272 120.196 880.845 120.05 881.48 120.05C882.199 120.05 882.787 120.201 883.246 120.503C883.704 120.795 884.027 121.207 884.214 121.738C884.985 120.613 885.98 120.05 887.199 120.05C888.167 120.05 888.907 120.316 889.417 120.847C889.938 121.378 890.199 122.196 890.199 123.3V129.941H888.558V123.847C888.558 123.191 888.506 122.722 888.402 122.441C888.298 122.149 888.105 121.915 887.824 121.738C887.542 121.561 887.214 121.472 886.839 121.472C886.162 121.472 885.6 121.701 885.152 122.16C884.704 122.608 884.48 123.326 884.48 124.316V129.941H882.839V123.66C882.839 122.931 882.704 122.384 882.433 122.019C882.162 121.654 881.725 121.472 881.121 121.472C880.662 121.472 880.235 121.592 879.839 121.832C879.444 122.071 879.157 122.425 878.98 122.894C878.813 123.363 878.73 124.04 878.73 124.925V129.941H877.089ZM898.943 128.753C898.328 129.264 897.74 129.628 897.177 129.847C896.625 130.055 896.026 130.16 895.38 130.16C894.318 130.16 893.5 129.899 892.927 129.378C892.354 128.858 892.068 128.196 892.068 127.394C892.068 126.915 892.177 126.483 892.396 126.097C892.615 125.701 892.896 125.389 893.24 125.16C893.594 124.92 893.99 124.738 894.427 124.613C894.74 124.529 895.224 124.446 895.88 124.363C897.203 124.207 898.177 124.019 898.802 123.8C898.812 123.571 898.818 123.431 898.818 123.378C898.818 122.712 898.661 122.238 898.349 121.957C897.932 121.592 897.307 121.41 896.474 121.41C895.703 121.41 895.135 121.545 894.771 121.816C894.406 122.087 894.135 122.561 893.958 123.238L892.349 123.019C892.495 122.342 892.734 121.795 893.068 121.378C893.401 120.951 893.885 120.623 894.521 120.394C895.156 120.165 895.885 120.05 896.708 120.05C897.542 120.05 898.214 120.149 898.724 120.347C899.245 120.535 899.625 120.779 899.865 121.082C900.115 121.373 900.286 121.743 900.38 122.191C900.432 122.472 900.458 122.977 900.458 123.707V125.894C900.458 127.415 900.495 128.378 900.568 128.785C900.641 129.18 900.776 129.566 900.974 129.941H899.271C899.094 129.597 898.984 129.201 898.943 128.753ZM898.802 125.082C898.208 125.332 897.318 125.54 896.13 125.707C895.453 125.8 894.974 125.91 894.693 126.035C894.411 126.16 894.193 126.337 894.036 126.566C893.891 126.795 893.818 127.056 893.818 127.347C893.818 127.785 893.984 128.149 894.318 128.441C894.651 128.733 895.135 128.878 895.771 128.878C896.396 128.878 896.953 128.743 897.443 128.472C897.943 128.191 898.307 127.811 898.536 127.332C898.714 126.957 898.802 126.41 898.802 125.691V125.082ZM903.006 133.644V120.269H904.49V121.519C904.844 121.029 905.24 120.665 905.678 120.425C906.126 120.175 906.667 120.05 907.303 120.05C908.126 120.05 908.85 120.264 909.475 120.691C910.11 121.108 910.589 121.707 910.912 122.488C911.235 123.259 911.397 124.108 911.397 125.035C911.397 126.024 911.219 126.915 910.865 127.707C910.511 128.498 909.996 129.108 909.318 129.535C908.641 129.951 907.928 130.16 907.178 130.16C906.636 130.16 906.147 130.045 905.709 129.816C905.272 129.587 904.917 129.295 904.647 128.941V133.644H903.006ZM904.49 125.16C904.49 126.399 904.74 127.321 905.24 127.925C905.751 128.519 906.36 128.816 907.068 128.816C907.798 128.816 908.423 128.509 908.943 127.894C909.464 127.269 909.725 126.311 909.725 125.019C909.725 123.79 909.469 122.868 908.959 122.253C908.459 121.639 907.855 121.332 907.147 121.332C906.449 121.332 905.829 121.66 905.287 122.316C904.756 122.962 904.49 123.91 904.49 125.16ZM921.428 119.863L919.803 119.988C919.658 119.342 919.449 118.873 919.178 118.582C918.741 118.113 918.194 117.878 917.538 117.878C917.017 117.878 916.559 118.024 916.163 118.316C915.652 118.691 915.246 119.243 914.944 119.972C914.642 120.691 914.486 121.717 914.475 123.05C914.871 122.457 915.356 122.014 915.928 121.722C916.501 121.431 917.1 121.285 917.725 121.285C918.819 121.285 919.746 121.686 920.507 122.488C921.277 123.29 921.663 124.326 921.663 125.597C921.663 126.441 921.481 127.222 921.116 127.941C920.762 128.66 920.267 129.212 919.632 129.597C919.007 129.983 918.293 130.175 917.491 130.175C916.116 130.175 914.996 129.675 914.132 128.675C913.277 127.665 912.85 126.003 912.85 123.691C912.85 121.108 913.324 119.233 914.272 118.066C915.106 117.045 916.231 116.535 917.647 116.535C918.689 116.535 919.543 116.832 920.21 117.425C920.887 118.009 921.293 118.821 921.428 119.863ZM914.741 125.613C914.741 126.175 914.861 126.717 915.1 127.238C915.34 127.748 915.673 128.139 916.1 128.41C916.527 128.68 916.981 128.816 917.46 128.816C918.147 128.816 918.741 128.54 919.241 127.988C919.741 127.425 919.991 126.665 919.991 125.707C919.991 124.779 919.746 124.05 919.257 123.519C918.767 122.988 918.147 122.722 917.397 122.722C916.658 122.722 916.027 122.988 915.507 123.519C914.996 124.05 914.741 124.748 914.741 125.613Z" fill="black"/>
<path fill-rule="evenodd" clip-rule="evenodd" d="M960.937 83.7295H1039.49V162.312H960.937V83.7295Z" fill="#CFE2F3"/>
<path fill-rule="evenodd" clip-rule="evenodd" d="M960.937 83.7295H1039.49V162.312H960.937V83.7295Z" stroke="black" stroke-width="2" stroke-miterlimit="10" stroke-linejoin="round"/>
<path d="M984.202 127.05L985.827 126.8C985.911 127.446 986.161 127.946 986.577 128.3C986.994 128.644 987.577 128.816 988.327 128.816C989.077 128.816 989.635 128.665 989.999 128.363C990.364 128.05 990.546 127.686 990.546 127.269C990.546 126.904 990.385 126.613 990.062 126.394C989.843 126.248 989.286 126.066 988.39 125.847C987.182 125.535 986.343 125.269 985.874 125.05C985.416 124.832 985.067 124.529 984.827 124.144C984.588 123.748 984.468 123.311 984.468 122.832C984.468 122.404 984.567 122.009 984.765 121.644C984.963 121.269 985.234 120.962 985.577 120.722C985.827 120.535 986.171 120.378 986.609 120.253C987.057 120.118 987.531 120.05 988.031 120.05C988.791 120.05 989.458 120.16 990.031 120.378C990.603 120.597 991.025 120.894 991.296 121.269C991.577 121.644 991.77 122.144 991.874 122.769L990.265 122.988C990.192 122.488 989.978 122.097 989.624 121.816C989.281 121.535 988.791 121.394 988.156 121.394C987.395 121.394 986.853 121.519 986.531 121.769C986.218 122.019 986.062 122.311 986.062 122.644C986.062 122.852 986.124 123.045 986.249 123.222C986.385 123.399 986.598 123.545 986.89 123.66C987.046 123.722 987.525 123.863 988.327 124.082C989.494 124.384 990.307 124.634 990.765 124.832C991.223 125.029 991.583 125.316 991.843 125.691C992.103 126.066 992.234 126.535 992.234 127.097C992.234 127.649 992.072 128.165 991.749 128.644C991.437 129.123 990.978 129.498 990.374 129.769C989.77 130.029 989.088 130.16 988.327 130.16C987.077 130.16 986.119 129.899 985.452 129.378C984.796 128.858 984.379 128.082 984.202 127.05ZM994.187 118.472V116.582H995.827V118.472H994.187ZM994.187 129.941V120.269H995.827V129.941H994.187ZM998.332 129.941V120.269H999.8V121.644C1000.51 120.582 1001.53 120.05 1002.88 120.05C1003.46 120.05 1004 120.154 1004.49 120.363C1004.98 120.571 1005.34 120.847 1005.58 121.191C1005.83 121.524 1006 121.925 1006.1 122.394C1006.16 122.696 1006.19 123.227 1006.19 123.988V129.941H1004.55V124.05C1004.55 123.384 1004.48 122.889 1004.35 122.566C1004.22 122.233 1004 121.967 1003.68 121.769C1003.35 121.571 1002.97 121.472 1002.53 121.472C1001.84 121.472 1001.23 121.696 1000.72 122.144C1000.22 122.582 999.972 123.42 999.972 124.66V129.941H998.332ZM1008.71 129.941V116.582H1010.35V124.207L1014.24 120.269H1016.35L1012.66 123.863L1016.72 129.941H1014.71L1011.5 124.988L1010.35 126.113V129.941H1008.71Z" fill="black"/>
<path fill-rule="evenodd" clip-rule="evenodd" d="M459.948 83.7295H538.499V162.312H459.948V83.7295Z" fill="#CFE2F3"/>
<path fill-rule="evenodd" clip-rule="evenodd" d="M459.948 83.7295H538.499V162.312H459.948V83.7295Z" stroke="black" stroke-width="2" stroke-miterlimit="10" stroke-linejoin="round"/>
<path d="M477.124 129.941V120.269H478.592V121.628C478.894 121.149 479.295 120.769 479.795 120.488C480.306 120.196 480.879 120.05 481.514 120.05C482.233 120.05 482.821 120.201 483.28 120.503C483.738 120.795 484.061 121.207 484.249 121.738C485.019 120.613 486.014 120.05 487.233 120.05C488.202 120.05 488.941 120.316 489.452 120.847C489.972 121.378 490.233 122.196 490.233 123.3V129.941H488.592V123.847C488.592 123.191 488.54 122.722 488.436 122.441C488.332 122.149 488.139 121.915 487.858 121.738C487.577 121.561 487.249 121.472 486.874 121.472C486.196 121.472 485.634 121.701 485.186 122.16C484.738 122.608 484.514 123.326 484.514 124.316V129.941H482.874V123.66C482.874 122.931 482.738 122.384 482.467 122.019C482.196 121.654 481.759 121.472 481.155 121.472C480.696 121.472 480.269 121.592 479.874 121.832C479.478 122.071 479.191 122.425 479.014 122.894C478.847 123.363 478.764 124.04 478.764 124.925V129.941H477.124ZM498.977 128.753C498.362 129.264 497.774 129.628 497.211 129.847C496.659 130.055 496.06 130.16 495.414 130.16C494.352 130.16 493.534 129.899 492.961 129.378C492.388 128.858 492.102 128.196 492.102 127.394C492.102 126.915 492.211 126.483 492.43 126.097C492.649 125.701 492.93 125.389 493.274 125.16C493.628 124.92 494.024 124.738 494.461 124.613C494.774 124.529 495.258 124.446 495.914 124.363C497.237 124.207 498.211 124.019 498.836 123.8C498.847 123.571 498.852 123.431 498.852 123.378C498.852 122.712 498.696 122.238 498.383 121.957C497.966 121.592 497.341 121.41 496.508 121.41C495.737 121.41 495.17 121.545 494.805 121.816C494.44 122.087 494.17 122.561 493.992 123.238L492.383 123.019C492.529 122.342 492.769 121.795 493.102 121.378C493.435 120.951 493.92 120.623 494.555 120.394C495.19 120.165 495.92 120.05 496.742 120.05C497.576 120.05 498.248 120.149 498.758 120.347C499.279 120.535 499.659 120.779 499.899 121.082C500.149 121.373 500.321 121.743 500.414 122.191C500.466 122.472 500.492 122.977 500.492 123.707V125.894C500.492 127.415 500.529 128.378 500.602 128.785C500.675 129.18 500.81 129.566 501.008 129.941H499.305C499.128 129.597 499.019 129.201 498.977 128.753ZM498.836 125.082C498.242 125.332 497.352 125.54 496.164 125.707C495.487 125.8 495.008 125.91 494.727 126.035C494.446 126.16 494.227 126.337 494.071 126.566C493.925 126.795 493.852 127.056 493.852 127.347C493.852 127.785 494.019 128.149 494.352 128.441C494.685 128.733 495.17 128.878 495.805 128.878C496.43 128.878 496.987 128.743 497.477 128.472C497.977 128.191 498.341 127.811 498.571 127.332C498.748 126.957 498.836 126.41 498.836 125.691V125.082ZM503.04 133.644V120.269H504.524V121.519C504.879 121.029 505.274 120.665 505.712 120.425C506.16 120.175 506.701 120.05 507.337 120.05C508.16 120.05 508.884 120.264 509.509 120.691C510.144 121.108 510.623 121.707 510.946 122.488C511.269 123.259 511.431 124.108 511.431 125.035C511.431 126.024 511.254 126.915 510.899 127.707C510.545 128.498 510.03 129.108 509.353 129.535C508.675 129.951 507.962 130.16 507.212 130.16C506.67 130.16 506.181 130.045 505.743 129.816C505.306 129.587 504.951 129.295 504.681 128.941V133.644H503.04ZM504.524 125.16C504.524 126.399 504.774 127.321 505.274 127.925C505.785 128.519 506.394 128.816 507.103 128.816C507.832 128.816 508.457 128.509 508.978 127.894C509.498 127.269 509.759 126.311 509.759 125.019C509.759 123.79 509.504 122.868 508.993 122.253C508.493 121.639 507.889 121.332 507.181 121.332C506.483 121.332 505.863 121.66 505.321 122.316C504.79 122.962 504.524 123.91 504.524 125.16ZM512.963 126.41L514.603 126.191C514.791 127.128 515.108 127.8 515.556 128.207C516.015 128.613 516.567 128.816 517.213 128.816C517.983 128.816 518.634 128.55 519.166 128.019C519.697 127.488 519.963 126.826 519.963 126.035C519.963 125.285 519.718 124.665 519.228 124.175C518.739 123.686 518.114 123.441 517.353 123.441C517.041 123.441 516.655 123.498 516.197 123.613L516.384 122.175C516.489 122.186 516.577 122.191 516.65 122.191C517.348 122.191 517.973 122.009 518.525 121.644C519.088 121.279 519.369 120.722 519.369 119.972C519.369 119.368 519.166 118.868 518.759 118.472C518.353 118.076 517.827 117.878 517.181 117.878C516.546 117.878 516.015 118.082 515.588 118.488C515.161 118.884 514.89 119.483 514.775 120.285L513.134 119.988C513.332 118.894 513.786 118.045 514.494 117.441C515.202 116.837 516.088 116.535 517.15 116.535C517.879 116.535 518.546 116.691 519.15 117.003C519.765 117.316 520.233 117.743 520.556 118.285C520.89 118.826 521.056 119.399 521.056 120.003C521.056 120.576 520.9 121.102 520.588 121.582C520.275 122.05 519.817 122.425 519.213 122.707C520.004 122.894 520.619 123.274 521.056 123.847C521.494 124.42 521.713 125.139 521.713 126.003C521.713 127.16 521.286 128.144 520.431 128.957C519.588 129.769 518.515 130.175 517.213 130.175C516.036 130.175 515.062 129.826 514.291 129.128C513.52 128.43 513.077 127.524 512.963 126.41Z" fill="black"/>
<path fill-rule="evenodd" clip-rule="evenodd" d="M560.971 83.7295H639.522V162.312H560.971V83.7295Z" fill="#CFE2F3"/>
<path fill-rule="evenodd" clip-rule="evenodd" d="M560.971 83.7295H639.522V162.312H560.971V83.7295Z" stroke="black" stroke-width="2" stroke-miterlimit="10" stroke-linejoin="round"/>
<path d="M578.147 129.941V120.269H579.616V121.628C579.918 121.149 580.319 120.769 580.819 120.488C581.329 120.196 581.902 120.05 582.538 120.05C583.256 120.05 583.845 120.201 584.303 120.503C584.762 120.795 585.084 121.207 585.272 121.738C586.043 120.613 587.038 120.05 588.256 120.05C589.225 120.05 589.965 120.316 590.475 120.847C590.996 121.378 591.256 122.196 591.256 123.3V129.941H589.616V123.847C589.616 123.191 589.564 122.722 589.459 122.441C589.355 122.149 589.163 121.915 588.881 121.738C588.6 121.561 588.272 121.472 587.897 121.472C587.22 121.472 586.657 121.701 586.209 122.16C585.762 122.608 585.538 123.326 585.538 124.316V129.941H583.897V123.66C583.897 122.931 583.762 122.384 583.491 122.019C583.22 121.654 582.782 121.472 582.178 121.472C581.72 121.472 581.293 121.592 580.897 121.832C580.501 122.071 580.215 122.425 580.038 122.894C579.871 123.363 579.788 124.04 579.788 124.925V129.941H578.147ZM600 128.753C599.386 129.264 598.797 129.628 598.235 129.847C597.683 130.055 597.084 130.16 596.438 130.16C595.375 130.16 594.558 129.899 593.985 129.378C593.412 128.858 593.125 128.196 593.125 127.394C593.125 126.915 593.235 126.483 593.453 126.097C593.672 125.701 593.953 125.389 594.297 125.16C594.651 124.92 595.047 124.738 595.485 124.613C595.797 124.529 596.282 124.446 596.938 124.363C598.261 124.207 599.235 124.019 599.86 123.8C599.87 123.571 599.875 123.431 599.875 123.378C599.875 122.712 599.719 122.238 599.407 121.957C598.99 121.592 598.365 121.41 597.532 121.41C596.761 121.41 596.193 121.545 595.828 121.816C595.464 122.087 595.193 122.561 595.016 123.238L593.407 123.019C593.552 122.342 593.792 121.795 594.125 121.378C594.459 120.951 594.943 120.623 595.578 120.394C596.214 120.165 596.943 120.05 597.766 120.05C598.599 120.05 599.271 120.149 599.782 120.347C600.302 120.535 600.683 120.779 600.922 121.082C601.172 121.373 601.344 121.743 601.438 122.191C601.49 122.472 601.516 122.977 601.516 123.707V125.894C601.516 127.415 601.552 128.378 601.625 128.785C601.698 129.18 601.834 129.566 602.032 129.941H600.328C600.151 129.597 600.042 129.201 600 128.753ZM599.86 125.082C599.266 125.332 598.375 125.54 597.188 125.707C596.511 125.8 596.032 125.91 595.75 126.035C595.469 126.16 595.25 126.337 595.094 126.566C594.948 126.795 594.875 127.056 594.875 127.347C594.875 127.785 595.042 128.149 595.375 128.441C595.709 128.733 596.193 128.878 596.828 128.878C597.453 128.878 598.011 128.743 598.5 128.472C599 128.191 599.365 127.811 599.594 127.332C599.771 126.957 599.86 126.41 599.86 125.691V125.082ZM604.064 133.644V120.269H605.548V121.519C605.902 121.029 606.298 120.665 606.735 120.425C607.183 120.175 607.725 120.05 608.36 120.05C609.183 120.05 609.907 120.264 610.532 120.691C611.168 121.108 611.647 121.707 611.97 122.488C612.293 123.259 612.454 124.108 612.454 125.035C612.454 126.024 612.277 126.915 611.923 127.707C611.569 128.498 611.053 129.108 610.376 129.535C609.699 129.951 608.985 130.16 608.235 130.16C607.694 130.16 607.204 130.045 606.767 129.816C606.329 129.587 605.975 129.295 605.704 128.941V133.644H604.064ZM605.548 125.16C605.548 126.399 605.798 127.321 606.298 127.925C606.808 128.519 607.418 128.816 608.126 128.816C608.855 128.816 609.48 128.509 610.001 127.894C610.522 127.269 610.782 126.311 610.782 125.019C610.782 123.79 610.527 122.868 610.017 122.253C609.517 121.639 608.912 121.332 608.204 121.332C607.506 121.332 606.886 121.66 606.345 122.316C605.814 122.962 605.548 123.91 605.548 125.16ZM619.236 129.941V126.738H613.439V125.238L619.533 116.582H620.877V125.238H622.674V126.738H620.877V129.941H619.236ZM619.236 125.238V119.222L615.049 125.238H619.236Z" fill="black"/>
<path d="M122.533 123.021H133.021" stroke="black" stroke-width="2" stroke-miterlimit="10" stroke-linejoin="round"/>
<path fill-rule="evenodd" clip-rule="evenodd" d="M133.021 126.325L142.097 123.021L133.021 119.718V126.325Z" fill="black" stroke="black" stroke-width="2" stroke-miterlimit="10"/>
<path d="M223.556 123.021H234.045" stroke="black" stroke-width="2" stroke-miterlimit="10" stroke-linejoin="round"/>
<path fill-rule="evenodd" clip-rule="evenodd" d="M234.045 126.325L243.121 123.021L234.045 119.718V126.325Z" fill="black" stroke="black" stroke-width="2" stroke-miterlimit="10"/>
<path d="M538.499 123.021H548.987" stroke="black" stroke-width="2" stroke-miterlimit="10" stroke-linejoin="round"/>
<path fill-rule="evenodd" clip-rule="evenodd" d="M548.987 126.325L558.063 123.021L548.987 119.718V126.325Z" fill="black" stroke="black" stroke-width="2" stroke-miterlimit="10"/>
<path d="M837.441 123.021H847.929" stroke="black" stroke-width="2" stroke-miterlimit="10" stroke-linejoin="round"/>
<path fill-rule="evenodd" clip-rule="evenodd" d="M847.929 126.325L857.005 123.021L847.929 119.718V126.325Z" fill="black" stroke="black" stroke-width="2" stroke-miterlimit="10"/>
<path d="M938.465 123.021H948.953" stroke="black" stroke-width="2" stroke-miterlimit="10" stroke-linejoin="round"/>
<path fill-rule="evenodd" clip-rule="evenodd" d="M948.953 126.325L958.029 123.021L948.953 119.718V126.325Z" fill="black" stroke="black" stroke-width="2" stroke-miterlimit="10"/>
<path d="M337.496 106.638H429.228" stroke="black" stroke-width="3" stroke-miterlimit="10" stroke-linejoin="round"/>
<path fill-rule="evenodd" clip-rule="evenodd" d="M429.228 111.593L442.843 106.638L429.228 101.683V111.593Z" fill="black" stroke="black" stroke-width="3" stroke-miterlimit="10"/>
<path d="M652.407 106.638H728.674" stroke="black" stroke-width="3" stroke-miterlimit="10" stroke-linejoin="round"/>
<path fill-rule="evenodd" clip-rule="evenodd" d="M728.675 111.593L742.289 106.638L728.675 101.683V111.593Z" fill="black" stroke="black" stroke-width="3" stroke-miterlimit="10"/>
<path d="M349.775 91.731V82.0591H351.244V83.5278C351.619 82.8403 351.963 82.3872 352.275 82.1685C352.598 81.9497 352.952 81.8403 353.338 81.8403C353.89 81.8403 354.452 82.0174 355.025 82.3716L354.463 83.8872C354.056 83.6476 353.655 83.5278 353.26 83.5278C352.895 83.5278 352.572 83.6372 352.291 83.856C352.01 84.0747 351.806 84.3716 351.681 84.7466C351.494 85.3299 351.4 85.9705 351.4 86.6685V91.731H349.775ZM362.628 88.6216L364.316 88.8247C364.045 89.8143 363.55 90.5851 362.832 91.1372C362.113 91.6789 361.191 91.9497 360.066 91.9497C358.649 91.9497 357.524 91.5174 356.691 90.6528C355.868 89.7778 355.457 88.5539 355.457 86.981C355.457 85.3455 355.873 84.0799 356.707 83.1841C357.55 82.2882 358.639 81.8403 359.972 81.8403C361.264 81.8403 362.316 82.283 363.128 83.1685C363.951 84.0435 364.363 85.2778 364.363 86.8716C364.363 86.9757 364.363 87.1216 364.363 87.3091H357.144C357.207 88.3716 357.509 89.1893 358.05 89.7622C358.592 90.3247 359.264 90.606 360.066 90.606C360.67 90.606 361.186 90.4497 361.613 90.1372C362.04 89.8143 362.378 89.3091 362.628 88.6216ZM357.238 85.9653H362.644C362.571 85.1528 362.363 84.5435 362.019 84.1372C361.498 83.5018 360.821 83.1841 359.988 83.1841C359.238 83.1841 358.602 83.4393 358.082 83.9497C357.571 84.4497 357.29 85.1216 357.238 85.9653ZM367.879 91.731H366.364V78.3716H368.004V83.1372C368.702 82.2726 369.588 81.8403 370.66 81.8403C371.254 81.8403 371.817 81.9601 372.348 82.1997C372.879 82.4393 373.317 82.7778 373.66 83.2153C374.004 83.6424 374.27 84.1632 374.457 84.7778C374.655 85.3924 374.754 86.0487 374.754 86.7466C374.754 88.4028 374.343 89.6841 373.52 90.5903C372.707 91.4966 371.723 91.9497 370.567 91.9497C369.431 91.9497 368.535 91.4705 367.879 90.5122V91.731ZM367.864 86.8247C367.864 87.981 368.025 88.8195 368.348 89.3403C368.858 90.1841 369.556 90.606 370.442 90.606C371.16 90.606 371.78 90.2935 372.301 89.6685C372.822 89.0435 373.082 88.1164 373.082 86.8872C373.082 85.6268 372.832 84.6945 372.332 84.0903C371.832 83.4862 371.223 83.1841 370.504 83.1841C369.796 83.1841 369.176 83.4966 368.645 84.1216C368.124 84.7466 367.864 85.6476 367.864 86.8247ZM383.067 90.5435C382.453 91.0539 381.864 91.4185 381.302 91.6372C380.75 91.8455 380.151 91.9497 379.505 91.9497C378.442 91.9497 377.625 91.6893 377.052 91.1685C376.479 90.6476 376.192 89.9862 376.192 89.1841C376.192 88.7049 376.302 88.2726 376.521 87.8872C376.739 87.4914 377.021 87.1789 377.364 86.9497C377.718 86.7101 378.114 86.5278 378.552 86.4028C378.864 86.3195 379.349 86.2362 380.005 86.1528C381.328 85.9966 382.302 85.8091 382.927 85.5903C382.937 85.3612 382.942 85.2205 382.942 85.1685C382.942 84.5018 382.786 84.0278 382.474 83.7466C382.057 83.382 381.432 83.1997 380.599 83.1997C379.828 83.1997 379.26 83.3351 378.896 83.606C378.531 83.8768 378.26 84.3507 378.083 85.0278L376.474 84.8091C376.619 84.132 376.859 83.5851 377.192 83.1685C377.526 82.7414 378.01 82.4132 378.646 82.1841C379.281 81.9549 380.01 81.8403 380.833 81.8403C381.666 81.8403 382.338 81.9393 382.849 82.1372C383.369 82.3247 383.75 82.5695 383.989 82.8716C384.239 83.1632 384.411 83.533 384.505 83.981C384.557 84.2622 384.583 84.7674 384.583 85.4966V87.6841C384.583 89.2049 384.619 90.1685 384.692 90.5747C384.765 90.9705 384.901 91.356 385.099 91.731H383.396C383.218 91.3872 383.109 90.9914 383.067 90.5435ZM382.927 86.8716C382.333 87.1216 381.442 87.3299 380.255 87.4966C379.578 87.5903 379.099 87.6997 378.817 87.8247C378.536 87.9497 378.317 88.1268 378.161 88.356C378.015 88.5851 377.942 88.8455 377.942 89.1372C377.942 89.5747 378.109 89.9393 378.442 90.231C378.776 90.5226 379.26 90.6685 379.896 90.6685C380.521 90.6685 381.078 90.533 381.567 90.2622C382.067 89.981 382.432 89.6007 382.661 89.1216C382.838 88.7466 382.927 88.1997 382.927 87.481V86.8716ZM387.084 91.731V78.3716H388.724V91.731H387.084ZM397.588 90.5435C396.973 91.0539 396.385 91.4185 395.822 91.6372C395.27 91.8455 394.671 91.9497 394.025 91.9497C392.963 91.9497 392.145 91.6893 391.572 91.1685C390.999 90.6476 390.713 89.9862 390.713 89.1841C390.713 88.7049 390.822 88.2726 391.041 87.8872C391.26 87.4914 391.541 87.1789 391.885 86.9497C392.239 86.7101 392.635 86.5278 393.072 86.4028C393.385 86.3195 393.869 86.2362 394.525 86.1528C395.848 85.9966 396.822 85.8091 397.447 85.5903C397.458 85.3612 397.463 85.2205 397.463 85.1685C397.463 84.5018 397.307 84.0278 396.994 83.7466C396.578 83.382 395.953 83.1997 395.119 83.1997C394.348 83.1997 393.781 83.3351 393.416 83.606C393.051 83.8768 392.781 84.3507 392.604 85.0278L390.994 84.8091C391.14 84.132 391.38 83.5851 391.713 83.1685C392.046 82.7414 392.531 82.4132 393.166 82.1841C393.801 81.9549 394.531 81.8403 395.354 81.8403C396.187 81.8403 396.859 81.9393 397.369 82.1372C397.89 82.3247 398.27 82.5695 398.51 82.8716C398.76 83.1632 398.932 83.533 399.025 83.981C399.078 84.2622 399.104 84.7674 399.104 85.4966V87.6841C399.104 89.2049 399.14 90.1685 399.213 90.5747C399.286 90.9705 399.421 91.356 399.619 91.731H397.916C397.739 91.3872 397.63 90.9914 397.588 90.5435ZM397.447 86.8716C396.854 87.1216 395.963 87.3299 394.775 87.4966C394.098 87.5903 393.619 87.6997 393.338 87.8247C393.057 87.9497 392.838 88.1268 392.682 88.356C392.536 88.5851 392.463 88.8455 392.463 89.1372C392.463 89.5747 392.63 89.9393 392.963 90.231C393.296 90.5226 393.781 90.6685 394.416 90.6685C395.041 90.6685 395.598 90.533 396.088 90.2622C396.588 89.981 396.953 89.6007 397.182 89.1216C397.359 88.7466 397.447 88.1997 397.447 87.481V86.8716ZM401.651 91.731V82.0591H403.12V83.4341C403.828 82.3716 404.854 81.8403 406.198 81.8403C406.781 81.8403 407.318 81.9445 407.807 82.1528C408.297 82.3612 408.662 82.6372 408.901 82.981C409.151 83.3143 409.323 83.7153 409.417 84.1841C409.479 84.4862 409.511 85.0174 409.511 85.7778V91.731H407.87V85.8403C407.87 85.1737 407.802 84.6789 407.667 84.356C407.542 84.0226 407.318 83.757 406.995 83.5591C406.672 83.3612 406.292 83.2622 405.854 83.2622C405.156 83.2622 404.552 83.4862 404.042 83.9341C403.542 84.3716 403.292 85.2101 403.292 86.4497V91.731H401.651ZM418.339 88.1841L419.949 88.4028C419.772 89.507 419.319 90.3768 418.589 91.0122C417.871 91.6372 416.98 91.9497 415.917 91.9497C414.595 91.9497 413.532 91.5174 412.73 90.6528C411.928 89.7882 411.527 88.5487 411.527 86.9341C411.527 85.882 411.699 84.9653 412.042 84.1841C412.386 83.4028 412.912 82.8195 413.621 82.4341C414.329 82.0382 415.1 81.8403 415.933 81.8403C416.985 81.8403 417.845 82.106 418.511 82.6372C419.178 83.1685 419.605 83.9237 419.792 84.9028L418.199 85.1372C418.042 84.4914 417.772 84.007 417.386 83.6841C417.001 83.3507 416.537 83.1841 415.996 83.1841C415.173 83.1841 414.501 83.481 413.98 84.0747C413.459 84.6685 413.199 85.606 413.199 86.8872C413.199 88.1893 413.449 89.1372 413.949 89.731C414.449 90.3143 415.1 90.606 415.902 90.606C416.548 90.606 417.084 90.408 417.511 90.0122C417.949 89.6164 418.225 89.007 418.339 88.1841ZM427.98 88.6216L429.667 88.8247C429.397 89.8143 428.902 90.5851 428.183 91.1372C427.464 91.6789 426.542 91.9497 425.417 91.9497C424.001 91.9497 422.876 91.5174 422.042 90.6528C421.22 89.7778 420.808 88.5539 420.808 86.981C420.808 85.3455 421.225 84.0799 422.058 83.1841C422.902 82.2882 423.99 81.8403 425.324 81.8403C426.615 81.8403 427.667 82.283 428.48 83.1685C429.303 84.0435 429.714 85.2778 429.714 86.8716C429.714 86.9757 429.714 87.1216 429.714 87.3091H422.496C422.558 88.3716 422.86 89.1893 423.402 89.7622C423.944 90.3247 424.615 90.606 425.417 90.606C426.022 90.606 426.537 90.4497 426.964 90.1372C427.391 89.8143 427.73 89.3091 427.98 88.6216ZM422.589 85.9653H427.996C427.923 85.1528 427.714 84.5435 427.371 84.1372C426.85 83.5018 426.173 83.1841 425.339 83.1841C424.589 83.1841 423.954 83.4393 423.433 83.9497C422.923 84.4497 422.641 85.1216 422.589 85.9653Z" fill="black"/>
<path d="M675.996 91.731V78.3716H677.636V85.9966L681.527 82.0591H683.636L679.949 85.6528L684.011 91.731H681.996L678.792 86.7778L677.636 87.9028V91.731H675.996ZM691.949 88.6216L693.636 88.8247C693.365 89.8143 692.871 90.5851 692.152 91.1372C691.433 91.6789 690.511 91.9497 689.386 91.9497C687.97 91.9497 686.845 91.5174 686.011 90.6528C685.188 89.7778 684.777 88.5539 684.777 86.981C684.777 85.3455 685.194 84.0799 686.027 83.1841C686.871 82.2882 687.959 81.8403 689.292 81.8403C690.584 81.8403 691.636 82.283 692.449 83.1685C693.272 84.0435 693.683 85.2778 693.683 86.8716C693.683 86.9757 693.683 87.1216 693.683 87.3091H686.464C686.527 88.3716 686.829 89.1893 687.371 89.7622C687.912 90.3247 688.584 90.606 689.386 90.606C689.99 90.606 690.506 90.4497 690.933 90.1372C691.36 89.8143 691.699 89.3091 691.949 88.6216ZM686.558 85.9653H691.964C691.891 85.1528 691.683 84.5435 691.339 84.1372C690.819 83.5018 690.141 83.1841 689.308 83.1841C688.558 83.1841 687.923 83.4393 687.402 83.9497C686.891 84.4497 686.61 85.1216 686.558 85.9653ZM695.621 95.4497L695.434 93.9185C695.798 94.0122 696.111 94.0591 696.371 94.0591C696.736 94.0591 697.028 93.9966 697.246 93.8716C697.465 93.757 697.647 93.5903 697.793 93.3716C697.897 93.2049 698.064 92.7987 698.293 92.1528C698.324 92.0591 698.371 91.9237 698.434 91.7466L694.762 82.0591H696.528L698.543 87.6528C698.804 88.3716 699.038 89.1216 699.246 89.9028C699.434 89.1528 699.658 88.4185 699.918 87.6997L701.996 82.0591H703.637L699.949 91.8872C699.554 92.9601 699.246 93.6945 699.028 94.0903C698.736 94.632 698.403 95.0278 698.028 95.2778C697.653 95.5278 697.205 95.6528 696.684 95.6528C696.361 95.6528 696.007 95.5851 695.621 95.4497ZM705.153 91.731V78.3716H710.168C711.189 78.3716 712.007 78.507 712.621 78.7778C713.236 79.0487 713.715 79.4653 714.059 80.0278C714.413 80.5903 714.59 81.1789 714.59 81.7935C714.59 82.3664 714.434 82.908 714.121 83.4185C713.819 83.9185 713.356 84.3195 712.731 84.6216C713.533 84.8612 714.153 85.2674 714.59 85.8403C715.028 86.4132 715.246 87.0851 715.246 87.856C715.246 88.481 715.111 89.0643 714.84 89.606C714.58 90.1372 714.251 90.5487 713.856 90.8403C713.47 91.132 712.986 91.356 712.403 91.5122C711.819 91.658 711.1 91.731 710.246 91.731H705.153ZM706.934 83.981H709.809C710.6 83.981 711.163 83.9341 711.496 83.8403C711.944 83.7049 712.283 83.481 712.512 83.1685C712.741 82.856 712.856 82.4653 712.856 81.9966C712.856 81.5591 712.746 81.1737 712.528 80.8403C712.319 80.4966 712.017 80.2622 711.621 80.1372C711.225 80.0122 710.548 79.9497 709.59 79.9497H706.934V83.981ZM706.934 90.1528H710.246C710.819 90.1528 711.22 90.132 711.449 90.0903C711.856 90.0174 712.194 89.8976 712.465 89.731C712.746 89.5539 712.975 89.3039 713.153 88.981C713.33 88.658 713.418 88.283 713.418 87.856C713.418 87.356 713.288 86.9237 713.028 86.5591C712.778 86.1945 712.423 85.9393 711.965 85.7935C711.517 85.6372 710.866 85.5591 710.012 85.5591H706.934V90.1528ZM717.393 95.4497L717.206 93.9185C717.57 94.0122 717.883 94.0591 718.143 94.0591C718.508 94.0591 718.799 93.9966 719.018 93.8716C719.237 93.757 719.419 93.5903 719.565 93.3716C719.669 93.2049 719.836 92.7987 720.065 92.1528C720.096 92.0591 720.143 91.9237 720.206 91.7466L716.534 82.0591H718.299L720.315 87.6528C720.575 88.3716 720.81 89.1216 721.018 89.9028C721.206 89.1528 721.429 88.4185 721.69 87.6997L723.768 82.0591H725.409L721.721 91.8872C721.325 92.9601 721.018 93.6945 720.799 94.0903C720.508 94.632 720.174 95.0278 719.799 95.2778C719.424 95.5278 718.976 95.6528 718.456 95.6528C718.133 95.6528 717.778 95.5851 717.393 95.4497Z" fill="black"/>
</svg>
